<svg width="884" height="897" viewBox="0 0 884 897" fill="none" xmlns="http://www.w3.org/2000/svg">
<path fill-rule="evenodd" clip-rule="evenodd" d="M88.4804 0C40.0668 0 0 40.3708 0 89.5036V806.466C0 855.598 40.0668 896.203 88.4804 896.203H794.886C843.3 896.203 883.079 855.598 883.079 806.466V89.5036C883.079 40.3708 843.3 0 794.886 0H88.4804ZM88.4804 59.5135H794.886C811.703 59.5135 824.437 72.4365 824.437 89.5036V238.871H265.039C225.25 238.306 225.25 299.17 265.039 298.618H824.437V806.466C824.437 823.531 811.703 836.456 794.886 836.456H88.4804C71.6638 836.456 58.8719 823.531 58.8719 806.466V298.618H147.295C187.084 299.182 187.084 238.319 147.295 238.871H58.8719V89.5036C58.8719 72.4365 71.6638 59.5135 88.4804 59.5135ZM147.295 119.377C131.038 119.377 117.858 132.751 117.859 149.251C117.859 165.749 131.038 179.124 147.295 179.124C163.552 179.124 176.731 165.749 176.731 149.251C176.731 132.751 163.552 119.377 147.295 119.377ZM265.039 119.377C248.781 119.377 235.602 132.751 235.603 149.251C235.603 165.749 248.782 179.124 265.039 179.124C281.296 179.124 294.474 165.749 294.475 149.251C294.475 132.751 281.296 119.377 265.039 119.377ZM382.783 119.377C366.525 119.377 353.346 132.751 353.347 149.251C353.347 165.749 366.526 179.124 382.783 179.124C399.039 179.124 412.218 165.749 412.219 149.251C412.219 132.751 399.04 119.377 382.783 119.377ZM265.096 418.112C261.175 418.022 257.276 418.729 253.627 420.19C249.979 421.651 246.655 423.837 243.851 426.62C241.046 429.403 238.818 432.726 237.297 436.395C235.776 440.064 234.992 444.005 234.992 447.985C234.992 451.965 235.776 455.906 237.297 459.575C238.818 463.244 241.046 466.567 243.851 469.35C246.655 472.133 249.979 474.319 253.627 475.78C257.276 477.241 261.175 477.948 265.096 477.858H618.213C622.134 477.948 626.033 477.241 629.682 475.78C633.33 474.319 636.654 472.133 639.458 469.35C642.263 466.567 644.491 463.244 646.012 459.575C647.533 455.906 648.317 451.965 648.317 447.985C648.317 444.005 647.533 440.064 646.012 436.395C644.491 432.726 642.263 429.403 639.458 426.62C636.654 423.837 633.33 421.651 629.682 420.19C626.033 418.729 622.134 418.022 618.213 418.112H265.096ZM262.049 537.605C254.235 538.015 246.901 541.559 241.661 547.457C236.421 553.355 233.704 561.123 234.108 569.054C234.512 576.985 238.004 584.428 243.815 589.746C249.627 595.063 257.282 597.821 265.096 597.411H618.213C626.027 597.411 633.522 594.26 639.048 588.652C644.573 583.044 647.678 575.439 647.678 567.508C647.678 559.577 644.573 551.971 639.048 546.364C633.522 540.756 626.027 537.605 618.213 537.605H265.096C264.081 537.552 263.064 537.552 262.049 537.605V537.605ZM262.049 657.157C254.364 657.735 247.208 661.343 242.112 667.209C237.016 673.075 234.385 680.733 234.784 688.543C235.182 696.353 238.577 703.694 244.243 708.995C249.908 714.296 257.394 717.135 265.096 716.904H441.54C445.461 716.994 449.36 716.287 453.008 714.826C456.657 713.365 459.981 711.179 462.785 708.396C465.589 705.613 467.818 702.289 469.339 698.621C470.86 694.952 471.644 691.011 471.644 687.031C471.644 683.05 470.86 679.11 469.339 675.441C467.818 671.772 465.589 668.449 462.785 665.666C459.981 662.883 456.657 660.697 453.008 659.236C449.36 657.775 445.461 657.068 441.54 657.157H265.096C264.081 657.104 263.064 657.104 262.049 657.157V657.157Z" fill="white"/>
</svg>
